.
 
http://www.scenetime.com    -   SceneTime [ We been having it ] !!!


How come you press harder on a remote control when you know the battery is dead? so you better seed to get speed ;)

        Seed back for speed


...................................NFO:................................................. _     _   _       ____   ____   ____  _   _ ____ _____ _   _ _____    _    ____ _____
 | |   | \ | |     |  _ \ / ___| | __ )| | | / ___|_   _| | | | ____|  / \  |  _ \__  /
 | |   |  \| |_____| |_) | |  _  |  _ \| | | \___ \ | | | |_| |  _|   / _ \ | | | |/ / 
 | |___| |\  |_____|  _ <| |_| | | |_) | |_| |___) || | |  _  | |___ / ___ \| |_| / /_ 
 |_____|_| \_|     |_| \_\\____| |____/ \___/|____/ |_| |_| |_|_____/_/   \_\____/____|
                                                                                                                                                      


Source:Hall.Pass.PAL.DVDR-iGNiTiON thx  :)
Encode Date:05-07-11
Country: USA
Language: English
Release Date: 11 March 2011 (UK) 
Imdb link:http://www.imdb.com/title/tt0480687/

General
Unique ID                        : 
Complete name                    : Hall.Pass.DVDrip.x264.LN-RG.Bustheadz.mkv
Format                           : Matroska
File size                        : 647 MiB
Duration                         : 1h 41mn
Overall bit rate                 : 895 Kbps
Encoded date                     : UTC 2011-07-05 01:49:46
Writing application              : mkvmerge v4.8.0 ('I Got The...') built on May 24 2011 03:12:58
Writing library                  : libebml v1.2.0 + libmatroska v1.1.0

Video
ID                               : 1
Format                           : AVC
Format/Info                      : Advanced Video Codec
Format profile                   : High@L4.1
Format settings, CABAC           : Yes
Format settings, ReFrames        : 3 frames
Muxing mode                      : Header stripping
Codec ID                         : V_MPEG4/ISO/AVC
Duration                         : 1h 41mn
Bit rate mode                    : Variable
Bit rate                         : 510 Kbps
Maximum bit rate                 : 40.0 Mbps
Width                            : 640 pixels
Height                           : 272 pixels
Display aspect ratio             : 2.35:1
Frame rate                       : 25.000 fps
Color space                      : YUV
Chroma subsampling               : 4:2:0
Bit depth                        : 8 bits
Scan type                        : Progressive
Bits/(Pixel*Frame)               : 0.117
Stream size                      : 356 MiB (55%)
Writing library                  : x264 core 115 r1995 c1e60b9
Encoding settings                : cabac=1 / ref=4 / deblock=
Language                         : English
Color primaries                  : BT.709-5, BT.1361, IEC 61966-2-4, SMPTE RP177
Transfer characteristics         : BT.709-5, BT.1361
Matrix coefficients              : BT.709-5, BT.1361, IEC 61966-2-4 709, SMPTE RP177

Audio
ID                               : 2
Format                           : AC-3
Format/Info                      : Audio Coding 3
Mode extension                   : CM (complete main)
Muxing mode                      : Header stripping
Codec ID                         : A_AC3
Duration                         : 1h 41mn
Bit rate mode                    : Constant
Bit rate                         : 384 Kbps
Channel(s)                       : 6 channels
Channel positions                : Front: L C R, Side: L R, LFE
Sampling rate                    : 48.0 KHz
Bit depth                        : 16 bits
Compression mode                 : Lossy
Stream size                      : 278 MiB (43%)


we specify on quality H264 mkv releases, the same quality or even better

than normal releases just a fraction of the size

a big shout out to Bustheadz,wolfie,moon,Whitestag13,BoBwhite,BH-RG,grey,TFRG,THC.BB-RG,IMAGiNE,FLAWL3SS,BOW,TWiZTED,KiK,iGNiTiON,BBnRG

and all others you know who you are :)